<svg width="278" height="236" viewBox="0 0 278 236" fill="none" xmlns="http://www.w3.org/2000/svg">
<g clip-path="url(#clip0_301_293)">
<rect x="39.0244" y="90.8261" width="210.885" height="148.189" rx="23.6126" transform="rotate(-12.6017 39.0244 90.8261)" fill="#C7CAF1"/>
<path d="M221.786 49.9676C234.512 47.1226 247.136 55.1329 249.981 67.8595L272.008 166.391C274.853 179.118 266.843 191.742 254.117 194.587L201.478 206.355C137.087 196.236 81.6481 150.589 61.1414 85.9019C61.4476 85.8205 61.7562 85.7434 62.0681 85.6737L221.786 49.9676Z" fill="#E2E6FD"/>
<path d="M221.785 49.9683C234.512 47.1232 247.135 55.1335 249.981 67.8602L260.789 116.206C256.773 117.739 252.599 119.003 248.281 119.969C205.156 129.61 162.345 106.388 146.009 66.9088L221.785 49.9683Z" fill="#ECEFFF"/>
<rect opacity="0.61" x="66.9578" y="111.279" width="90.3792" height="12.2134" rx="6.1067" transform="rotate(-12.6017 66.9578 111.279)" fill="#898DCA"/>
<rect opacity="0.61" x="77.6167" y="158.957" width="165.288" height="12.2134" rx="6.1067" transform="rotate(-12.6017 77.6167 158.957)" fill="#898DCA"/>
<path d="M51.4785 65.0935C52.5015 62.5468 56.3034 63.3993 56.141 66.139L55.0438 84.6469C54.9822 85.6861 55.5919 86.6483 56.5578 87.0363L73.762 93.9474C76.3087 94.9704 75.4561 98.7723 72.7164 98.6099L54.2085 97.5127C53.1694 97.4511 52.2072 98.0608 51.8192 99.0268L44.9081 116.231C43.885 118.778 40.0832 117.925 40.2456 115.185L41.3428 96.6775C41.4044 95.6383 40.7947 94.6761 39.8287 94.2881L22.6246 87.377C20.0779 86.3539 20.9304 82.5521 23.6701 82.7145L42.178 83.8117C43.2172 83.8733 44.1793 83.2636 44.5674 82.2976L51.4785 65.0935Z" fill="#9B82F7" fill-opacity="0.29"/>
<path d="M239.765 9.15152C240.04 7.46228 242.47 7.46227 242.745 9.15152L244.603 20.5631C244.707 21.2038 245.21 21.7061 245.85 21.8104L257.262 23.6682C258.951 23.9432 258.951 26.3729 257.262 26.648L245.85 28.5058C245.21 28.6101 244.707 29.1124 244.603 29.7531L242.745 41.1646C242.47 42.8539 240.04 42.8539 239.765 41.1647L237.908 29.7531C237.803 29.1124 237.301 28.6101 236.66 28.5058L225.249 26.648C223.559 26.3729 223.559 23.9432 225.249 23.6682L236.66 21.8104C237.301 21.7061 237.803 21.2038 237.908 20.5631L239.765 9.15152Z" fill="#9B82F7" fill-opacity="0.29"/>
<circle cx="264.579" cy="44.8165" r="1.83378" fill="#9B82F7" fill-opacity="0.29"/>
<circle cx="95.8717" cy="42.983" r="3.66756" fill="#9B82F7" fill-opacity="0.29"/>
<circle cx="191.228" cy="55.8194" r="3.66756" fill="#9B82F7" fill-opacity="0.29"/>
</g>
<defs>
<clipPath id="clip0_301_293">
<rect width="277.16" height="235.45" fill="white"/>
</clipPath>
</defs>
</svg>
