<svg width="31" height="22" viewBox="0 0 31 22" fill="none" xmlns="http://www.w3.org/2000/svg">
<g clip-path="url(#clip0_301_401)">
<path d="M23.75 0C27.4779 0 30.5 3.02208 30.5 6.75V14.75C30.5 18.4779 27.4779 21.5 23.75 21.5H6.75C3.02208 21.5 0 18.4779 0 14.75V6.75C0 3.02208 3.02208 0 6.75 0H23.75ZM6.75 1.5C3.85051 1.5 1.5 3.85051 1.5 6.75V14.75C1.5 17.6495 3.85051 20 6.75 20H23.75C26.6495 20 29 17.6495 29 14.75V6.75C29 3.85051 26.6495 1.5 23.75 1.5H6.75ZM15.75 15C16.1642 15 16.5 15.3358 16.5 15.75C16.5 16.1642 16.1642 16.5 15.75 16.5H5.75C5.33579 16.5 5 16.1642 5 15.75C5 15.3358 5.33579 15 5.75 15H15.75ZM11.75 11C12.1642 11 12.5 11.3358 12.5 11.75C12.5 12.1642 12.1642 12.5 11.75 12.5H5.75C5.33579 12.5 5 12.1642 5 11.75C5 11.3358 5.33579 11 5.75 11H11.75Z" fill="#121212"/>
</g>
<defs>
<clipPath id="clip0_301_401">
<rect width="30.5" height="21.5" fill="white"/>
</clipPath>
</defs>
</svg>
