<svg width="22" height="21" viewBox="0 0 22 21" fill="none" xmlns="http://www.w3.org/2000/svg">
<g clip-path="url(#clip0_426_329)">
<path d="M4.57304 2.12573C4.18001 2.12573 3.80127 2.28053 3.519 2.55495L2.00762 4.04314C1.72893 4.32107 1.57172 4.694 1.57172 5.081C1.57172 5.468 1.72893 5.84092 2.00762 6.11886L4.54864 8.62088C4.88725 8.9543 5.43077 8.9543 5.76938 8.62088L8.14891 6.27786C8.49502 5.93707 8.49502 5.37888 8.14891 5.03809L5.62707 2.55495C5.34481 2.28053 4.96607 2.12573 4.57304 2.12573ZM19.4296 16.1456L10.6001 7.45164C10.2615 7.11822 9.71795 7.11822 9.37933 7.45164L6.9998 9.79466C6.6537 10.1355 6.6537 10.6936 6.9998 11.0344L15.8101 19.7096C16.0924 19.984 16.4711 20.1388 16.8642 20.1388C17.2572 20.1388 17.6359 19.984 17.9182 19.7096L19.4296 18.2214C19.7083 17.9434 19.8655 17.5705 19.8655 17.1835C19.8655 16.7965 19.7083 16.4236 19.4296 16.1456Z" fill="#A1A4D9" stroke="#A1A4D9" stroke-width="0.869948"/>
<path d="M3.9048 13.1623C3.99412 12.9547 4.20135 12.821 4.43003 12.821C4.6587 12.821 4.86593 12.9547 4.95526 13.1623L5.72345 14.9249L7.51353 15.6813C7.72433 15.7693 7.86011 15.9733 7.86011 16.1985C7.86011 16.4237 7.72433 16.6277 7.51353 16.7157L5.72345 17.4721L4.95526 19.2347C4.86593 19.4422 4.6587 19.5759 4.43003 19.5759C4.20135 19.5759 3.99412 19.4422 3.9048 19.2347L3.1366 17.4721L1.34653 16.7157C1.13572 16.6277 0.999948 16.4237 0.999948 16.1985C0.999948 15.9733 1.13572 15.7693 1.34653 15.6813L3.1366 14.9249L3.9048 13.1623Z" fill="#A1A4D9" stroke="#A1A4D9" stroke-width="0.869948"/>
<path d="M16.2853 5.35545L17.0535 3.59285C17.1428 3.38528 17.35 3.25159 17.5787 3.25159C17.8074 3.25159 18.0146 3.38528 18.1039 3.59285L18.8721 5.35545L20.6622 6.11186C20.873 6.19982 21.0088 6.40387 21.0088 6.62903C21.0088 6.85419 20.873 7.05825 20.6622 7.1462L18.8721 7.90261L18.1039 9.66521C18.0146 9.87279 17.8074 10.0065 17.5787 10.0065C17.35 10.0065 17.1428 9.87279 17.0535 9.66521L16.2853 7.90261L14.4952 7.1462C14.2844 7.05825 14.1486 6.85419 14.1486 6.62903C14.1486 6.40387 14.2844 6.19982 14.4952 6.11186L16.2853 5.35545Z" fill="#A1A4D9" stroke="#A1A4D9" stroke-width="0.869948"/>
<path d="M11.0688 2.4706L11.5976 1.17591C11.6404 1.07036 11.7476 1 11.862 1C11.9763 1 12.0835 1.07036 12.1264 1.17591L12.6552 2.4706L13.97 2.99129C14.0772 3.0335 14.1487 3.13905 14.1487 3.25163C14.1487 3.36421 14.0772 3.46976 13.97 3.51197L12.6552 4.03266L12.1264 5.32735C12.0835 5.4329 11.9763 5.50326 11.862 5.50326C11.7476 5.50326 11.6404 5.4329 11.5976 5.32735L11.0688 4.03266L9.75389 3.51197C9.6467 3.46976 9.57524 3.36421 9.57524 3.25163C9.57524 3.13905 9.6467 3.0335 9.75389 2.99129L11.0688 2.4706Z" fill="#A1A4D9" stroke="#A1A4D9" stroke-width="0.869948"/>
</g>
<defs>
<clipPath id="clip0_426_329">
<rect width="22" height="21" fill="white"/>
</clipPath>
</defs>
</svg>
