<svg width="19" height="16" viewBox="0 0 19 16" fill="none" xmlns="http://www.w3.org/2000/svg">
<g clip-path="url(#clip0_398_331)">
<path d="M13.7305 0C16.8081 0 19 2.39882 19 5.23535C18.9999 7.38911 17.5916 9.49632 16.082 11.1689C14.7276 12.6696 13.1469 13.9768 11.9531 14.8711L11.4668 15.2285C10.2945 16.0727 8.70553 16.0727 7.5332 15.2285H7.53223C6.30854 14.3463 4.4658 12.8847 2.91797 11.1699C1.40822 9.49728 0.000128413 7.38968 0 5.23535C0 2.39882 2.19186 0 5.26953 0C6.65307 0.000130696 7.97572 0.416085 9.49902 1.6748C11.0227 0.415538 12.3466 0.000105126 13.7305 0Z" fill="white"/>
</g>
<defs>
<clipPath id="clip0_398_331">
<rect width="19" height="16" fill="white"/>
</clipPath>
</defs>
</svg>
