<svg width="19" height="16" viewBox="0 0 19 16" fill="none" xmlns="http://www.w3.org/2000/svg">
<g clip-path="url(#clip0_398_330)">
<path d="M16.9244 5.28101C16.9244 3.4245 15.5527 2.01744 13.7308 2.01744C12.7935 2.01747 11.7758 2.27964 10.2343 3.77778C9.82898 4.17171 9.17102 4.17171 8.76572 3.77778C7.22425 2.27965 6.20646 2.01749 5.26916 2.01744C3.44727 2.01744 2.07564 3.4245 2.07564 5.28101C2.07577 6.67811 3.03292 8.32093 4.48472 9.94339C5.8984 11.5232 7.61331 12.9003 8.77586 13.7458L8.85896 13.801C9.28276 14.0604 9.81589 14.0422 10.2241 13.7458C11.3866 12.9004 13.1016 11.5232 14.5153 9.94339C15.9671 8.32077 16.9242 6.67768 16.9244 5.28101ZM19 5.28101C18.9999 7.45355 17.5917 9.57914 16.0821 11.2663C14.7277 12.7801 13.1469 14.0987 11.9532 15.0008L11.4667 15.3613C10.2944 16.2129 8.70564 16.2129 7.53331 15.3613H7.5323C6.3086 14.4714 4.46572 12.9971 2.91785 11.2673C1.4081 9.5801 0.000128413 7.45413 0 5.28101C0 2.41974 2.19149 0 5.26916 0C6.65292 5.74749e-05 7.97593 0.41942 9.49949 1.68941C11.0233 0.419049 12.3469 3.17349e-05 13.7308 0C16.8085 0 19 2.41974 19 5.28101Z" fill="white"/>
</g>
<defs>
<clipPath id="clip0_398_330">
<rect width="19" height="16" fill="white"/>
</clipPath>
</defs>
</svg>
