<svg width="19" height="19" viewBox="0 0 19 19" fill="none" xmlns="http://www.w3.org/2000/svg">
<g clip-path="url(#clip0_12_244)">
<path d="M9.49512 0C10.0473 6.59659e-05 10.4951 0.447756 10.4951 1V7.49512C10.4951 8.0474 10.9428 8.49512 11.4951 8.49512H18C18.5523 8.49512 19 8.94283 19 9.49512C19 10.0474 18.5523 10.4951 18 10.4951H11.4951C10.9428 10.4951 10.4951 10.9428 10.4951 11.4951V18C10.4951 18.5522 10.0473 18.9999 9.49512 19C8.94283 19 8.49512 18.5523 8.49512 18V11.4951C8.49512 10.9428 8.0474 10.4951 7.49512 10.4951H1C0.447716 10.4951 4.01084e-07 10.0474 0 9.49512C2.41411e-08 8.94283 0.447716 8.49512 1 8.49512H7.49512C8.0474 8.49512 8.49512 8.0474 8.49512 7.49512V1C8.49512 0.447715 8.94283 0 9.49512 0Z" fill="black"/>
</g>
<defs>
<clipPath id="clip0_12_244">
<rect width="19" height="19" fill="white"/>
</clipPath>
</defs>
</svg>
