<svg width="19" height="18" viewBox="0 0 19 18" fill="none" xmlns="http://www.w3.org/2000/svg">
<g clip-path="url(#clip0_301_299)">
<path d="M9.75002 0C14.5825 0 18.5 3.91751 18.5 8.75C18.5 13.5825 14.5825 17.5 9.75002 17.5C8.0878 17.5 6.53446 17.0358 5.21129 16.2306C4.35287 15.7082 3.23409 15.6554 2.46234 16.2989L1.23049 17.3262C0.912346 17.5912 0.439032 17.5485 0.173848 17.2305C-0.0911958 16.9123 -0.0483959 16.439 0.269552 16.1738L1.32594 15.2932C2.14963 14.6065 2.25972 13.3988 1.80833 12.426C1.28973 11.3084 1.00002 10.0632 1.00002 8.75C1.00002 3.91755 4.91758 6.5973e-05 9.75002 0ZM9.75002 1.5C5.74601 1.50007 2.50002 4.74598 2.50002 8.75C2.50002 12.754 5.74601 15.9999 9.75002 16C13.7541 16 17 12.7541 17 8.75C17 4.74594 13.7541 1.5 9.75002 1.5Z" fill="black"/>
</g>
<defs>
<clipPath id="clip0_301_299">
<rect width="18.5" height="17.5" fill="white"/>
</clipPath>
</defs>
</svg>
