<svg width="32" height="26" viewBox="0 0 32 26" fill="none" xmlns="http://www.w3.org/2000/svg">
<g clip-path="url(#clip0_315_416)">
<path d="M22.8571 15.2645C22.8571 15.5998 22.7566 15.9275 22.5682 16.2063C22.3799 16.485 22.1121 16.7023 21.7989 16.8306C21.4856 16.9589 21.141 16.9925 20.8084 16.927C20.4759 16.8616 20.1704 16.7002 19.9307 16.4631C19.6909 16.2261 19.5277 15.9241 19.4615 15.5952C19.3954 15.2664 19.4293 14.9256 19.5591 14.6159C19.6888 14.3061 19.9085 14.0414 20.1904 13.8551C20.4724 13.6689 20.8038 13.5695 21.1429 13.5695C21.5975 13.5695 22.0335 13.7481 22.355 14.066C22.6765 14.3838 22.8571 14.815 22.8571 15.2645ZM10.8571 13.5695C10.5181 13.5695 10.1867 13.6689 9.90474 13.8551C9.62283 14.0414 9.4031 14.3061 9.27335 14.6159C9.1436 14.9256 9.10965 15.2664 9.1758 15.5952C9.24195 15.9241 9.40522 16.2261 9.64496 16.4631C9.88471 16.7002 10.1902 16.8616 10.5227 16.927C10.8552 16.9925 11.1999 16.9589 11.5132 16.8306C11.8264 16.7023 12.0942 16.485 12.2825 16.2063C12.4709 15.9275 12.5714 15.5998 12.5714 15.2645C12.5714 14.815 12.3908 14.3838 12.0693 14.066C11.7478 13.7481 11.3118 13.5695 10.8571 13.5695ZM32 4.5291V15.8296C31.997 18.526 30.9123 21.1112 28.984 23.0178C27.0557 24.9245 24.4413 25.997 21.7143 26H10.2857C7.55871 25.997 4.94425 24.9245 3.01596 23.0178C1.08768 21.1112 0.00303384 18.526 8.86518e-06 15.8296V4.5291C-0.00218436 3.42736 0.402641 2.36276 1.1384 1.53538C1.87416 0.707998 2.8902 0.174809 3.99555 0.0360201C5.10091 -0.102769 6.21947 0.162398 7.14101 0.781684C8.06256 1.40097 8.72364 2.33174 9 3.39905H23C23.2764 2.33174 23.9374 1.40097 24.859 0.781684C25.7805 0.162398 26.8991 -0.102769 28.0044 0.0360201C29.1098 0.174809 30.1258 0.707998 30.8616 1.53538C31.5974 2.36276 32.0022 3.42736 32 4.5291ZM26.2857 14.6995C26.2857 13.5007 25.8041 12.351 24.9468 11.5033C24.0895 10.6556 22.9267 10.1793 21.7143 10.1793H10.2857C9.0733 10.1793 7.91054 10.6556 7.05323 11.5033C6.19592 12.351 5.71429 13.5007 5.71429 14.6995V15.8296C5.71429 17.0284 6.19592 18.1781 7.05323 19.0258C7.91054 19.8735 9.0733 20.3498 10.2857 20.3498H21.7143C22.9267 20.3498 24.0895 19.8735 24.9468 19.0258C25.8041 18.1781 26.2857 17.0284 26.2857 15.8296V14.6995Z" fill="black"/>
</g>
<defs>
<clipPath id="clip0_315_416">
<rect width="32" height="26" fill="white"/>
</clipPath>
</defs>
</svg>
