<svg width="34" height="34" viewBox="0 0 34 34" fill="none" xmlns="http://www.w3.org/2000/svg">
<g clip-path="url(#clip0_387_676)">
<circle cx="17" cy="17" r="17" fill="#C2B6FF"/>
<path d="M17.1855 10C17.6034 10.0001 17.9424 10.3389 17.9424 10.7568V14.668C17.9424 15.6404 18.7307 16.4287 19.7031 16.4287H23.6221C24.04 16.4287 24.3788 16.7677 24.3789 17.1855C24.3789 17.6035 24.04 17.9424 23.6221 17.9424H19.7031C18.7307 17.9424 17.9424 18.7307 17.9424 19.7031V23.6221C17.9424 24.04 17.6034 24.3788 17.1855 24.3789C16.7676 24.3789 16.4287 24.04 16.4287 23.6221V19.7031C16.4287 18.7307 15.6404 17.9424 14.668 17.9424H10.7568C10.3389 17.9424 10 17.6035 10 17.1855C10.0001 16.7677 10.339 16.4287 10.7568 16.4287H14.668C15.6404 16.4287 16.4287 15.6404 16.4287 14.668V10.7568C16.4287 10.3389 16.7676 10 17.1855 10Z" fill="#9787EC"/>
</g>
<defs>
<clipPath id="clip0_387_676">
<rect width="34" height="34" fill="white"/>
</clipPath>
</defs>
</svg>
