<svg width="93" height="93" viewBox="0 0 93 93" fill="none" xmlns="http://www.w3.org/2000/svg">
<g clip-path="url(#clip0_441_365)">
<mask id="mask0_441_365" style="mask-type:alpha" maskUnits="userSpaceOnUse" x="0" y="0" width="93" height="93">
<rect width="93" height="93" fill="#D9D9D9"/>
</mask>
<g mask="url(#mask0_441_365)">
<rect x="-91.0576" y="-54.2571" width="314.781" height="231.839" fill="#DBD2FF"/>
<path d="M-9.56024 55.2322C-10.8006 50.603 -8.05346 45.8448 -3.42429 44.6044L107.105 14.9883C109.419 14.3681 111.798 15.7417 112.419 18.0562L136.917 109.487C137.537 111.801 136.164 114.18 133.849 114.801L23.3203 144.417C18.6912 145.657 13.9329 142.91 12.6925 138.281L-9.56024 55.2322Z" fill="#9B82F7" stroke="#6F48FF" stroke-width="1.73551"/>
<path d="M77.3169 80.0255C79.4094 87.8348 87.4364 92.4692 95.2458 90.3767L134.339 79.9017L127.884 55.8125C127.264 53.4979 124.885 52.1244 122.57 52.7446L87.6681 62.0966C79.8588 64.1891 75.2244 72.2161 77.3169 80.0255V80.0255Z" fill="#6F48FF"/>
<path d="M-9.57743 55.168C-10.8083 50.5743 -8.0822 45.8525 -3.48846 44.6216L107.105 14.9883C109.419 14.3681 111.798 15.7417 112.419 18.0562L115.753 30.5007L0.968975 61.257C-3.62476 62.4879 -8.34655 59.7618 -9.57743 55.168V55.168Z" fill="#9B82F7" stroke="#6F48FF" stroke-width="1.73551"/>
<path opacity="0.36" d="M-9.57715 55.1685L113.525 22.1834L115.753 30.5011L0.969261 61.2574C-3.62447 62.4883 -8.34626 59.7622 -9.57715 55.1685V55.1685Z" fill="#6F48FF"/>
<rect x="-4.31592" y="31.5515" width="99.0277" height="69.587" rx="11.1736" transform="rotate(-27.6017 -4.31592 31.5515)" fill="#C7CAF1"/>
<path d="M73.5389 -9.15334C79.0076 -12.0125 85.759 -9.89698 88.6181 -4.4283L110.505 37.4346C113.364 42.9033 111.249 49.6547 105.78 52.5139L83.4107 64.2091C52.9755 67.4451 22.2822 53.4796 5.11867 26.6328C5.27156 26.5435 5.42762 26.457 5.58618 26.3741L73.5389 -9.15334Z" fill="#E2E6FD"/>
<path d="M73.5391 -9.15316C79.0077 -12.0123 85.7586 -9.89743 88.6179 -4.42898L99.3557 16.1092C97.7208 17.2924 95.982 18.3744 94.1406 19.3372C75.7518 28.9513 53.5119 23.6217 41.304 7.7002L73.5391 -9.15316Z" fill="#ECEFFF"/>
<rect opacity="0.61" x="10.8396" y="37.4336" width="42.4404" height="5.73519" rx="2.8676" transform="rotate(-27.6017 10.8396 37.4336)" fill="#898DCA"/>
<rect opacity="0.61" x="21.4692" y="57.7642" width="77.6163" height="5.73519" rx="2.8676" transform="rotate(-27.6017 21.4692 57.7642)" fill="#898DCA"/>
<path d="M7.62329 59.4741L115.753 30.5008L136.917 109.487C137.538 111.801 136.164 114.18 133.849 114.801L29.9105 142.651L7.62329 59.4741Z" fill="#9B82F7" stroke="#6F48FF" stroke-width="1.73551"/>
<path d="M8.51489 62.8013L112.486 34.9423L131.867 107.274C132.487 109.589 131.114 111.968 128.799 112.588L29.0191 139.324L8.51489 62.8013Z" stroke="#6F48FF" stroke-width="1.30163" stroke-linecap="round" stroke-linejoin="round" stroke-dasharray="3.47 3.47"/>
<path d="M6.83871 14.8483C6.99442 13.5589 8.83659 13.483 9.0979 14.7552L10.8375 23.2244C10.9366 23.7069 11.3332 24.072 11.8222 24.1311L20.4059 25.1677C21.6952 25.3234 21.7712 27.1656 20.499 27.4269L12.0298 29.1665C11.5473 29.2656 11.1821 29.6621 11.1231 30.1512L10.0865 38.7348C9.93078 40.0242 8.08861 40.1001 7.82731 38.828L6.08768 30.3588C5.98857 29.8762 5.59205 29.5111 5.103 29.452L-3.48067 28.4155C-4.77002 28.2597 -4.84596 26.4176 -3.57381 26.1563L4.89541 24.4166C5.37794 24.3175 5.74306 23.921 5.80212 23.432L6.83871 14.8483Z" fill="#9B82F7" fill-opacity="0.29"/>
<path d="M54.0183 3.38595C53.9371 2.58015 55.0477 2.28257 55.3803 3.02101L57.5945 7.93707C57.7206 8.21716 58.0117 8.38522 58.3174 8.35443L63.6819 7.81393C64.4877 7.73275 64.7853 8.84333 64.0468 9.17592L59.1308 11.3901C58.8507 11.5162 58.6826 11.8073 58.7134 12.113L59.2539 17.4775C59.3351 18.2833 58.2245 18.5809 57.8919 17.8425L55.6777 12.9264C55.5516 12.6463 55.2605 12.4782 54.9548 12.509L49.5903 13.0495C48.7845 13.1307 48.4869 12.0201 49.2254 11.6875L54.1414 9.47336C54.4215 9.34721 54.5896 9.05611 54.5588 8.75047L54.0183 3.38595Z" fill="#9B82F7" fill-opacity="0.29"/>
<circle cx="15.6542" cy="2.94192" r="1.72222" transform="rotate(-15 15.6542 2.94192)" fill="#9B82F7" fill-opacity="0.29"/>
<path opacity="0.28" d="M-2.48169 85.0029C13.5019 112.214 42.0713 129.755 73.3341 131.914L23.5455 145.255C18.4535 146.62 13.2188 143.597 11.8542 138.505L-2.48169 85.0029ZM137.372 112.959C136.726 114.234 135.563 115.24 134.074 115.639L133.327 115.839C134.704 114.912 136.052 113.952 137.372 112.959Z" fill="#7857F3"/>
<path opacity="0.28" d="M132.258 92.0433C131.979 92.1198 131.7 92.1977 131.421 92.2727C82.7622 105.311 34.8771 89.9848 14.0654 57.5442L115.716 30.307L132.258 92.0433Z" fill="#BAA7FF"/>
<path d="M77.8223 85.2387C75.7298 77.4294 80.3642 69.4023 88.1735 67.3098L127.267 56.8348L133.721 80.924C134.342 83.2386 132.968 85.6177 130.653 86.2379L95.7512 95.59C87.9418 97.6825 79.9148 93.048 77.8223 85.2387V85.2387Z" fill="#9B82F7" stroke="#6F48FF" stroke-width="1.73551"/>
<circle cx="91.9623" cy="81.45" r="6.88888" transform="rotate(-15 91.9623 81.45)" fill="#6F48FF" stroke="#6F48FF" stroke-width="1.73551"/>
</g>
</g>
<defs>
<clipPath id="clip0_441_365">
<rect width="93" height="93" fill="white"/>
</clipPath>
</defs>
</svg>
