<svg width="23" height="20" viewBox="0 0 23 20" fill="none" xmlns="http://www.w3.org/2000/svg">
<g clip-path="url(#clip0_426_328)">
<path d="M12.41 0.0798797C12.5525 0.0125175 12.7112 -0.0130189 12.8676 0.0062396C13.0241 0.0254981 13.1718 0.0887603 13.2937 0.188672L22.4522 7.68199C22.5439 7.757 22.6186 7.85073 22.6712 7.95692C22.7238 8.06311 22.7531 8.1793 22.7572 8.29773C22.7613 8.41616 22.7401 8.53411 22.695 8.64368C22.6498 8.75324 22.5818 8.85192 22.4955 8.93309L13.337 17.5365C13.2186 17.648 13.0701 17.7223 12.91 17.7503C12.7498 17.7784 12.5849 17.7589 12.4357 17.6943C12.2865 17.6297 12.1594 17.5229 12.0702 17.3869C11.9811 17.251 11.9336 17.0919 11.9338 16.9293V12.7774C10.6394 12.8174 9.19957 12.9873 7.65539 13.6678C5.89696 14.4426 3.93649 15.9113 1.92717 18.7488L1.52531 19.3338C1.42618 19.4825 1.28186 19.5953 1.11366 19.6556C0.945474 19.7159 0.76234 19.7206 0.591326 19.6688C0.420313 19.617 0.270492 19.5116 0.164006 19.3681C0.0575208 19.2246 1.94681e-05 19.0507 0 18.872C0 13.9808 1.48756 10.4795 3.89652 8.20596C6.09234 6.13559 8.96422 5.16867 11.9338 5.0177V0.832541C11.9336 0.674676 11.9782 0.519993 12.0625 0.386533C12.1468 0.253073 12.2674 0.147446 12.41 0.0798797Z" fill="#A1A4D9"/>
</g>
<defs>
<clipPath id="clip0_426_328">
<rect width="23" height="20" fill="white"/>
</clipPath>
</defs>
</svg>
