<svg width="21" height="21" viewBox="0 0 21 21" fill="none" xmlns="http://www.w3.org/2000/svg">
<g clip-path="url(#clip0_426_327)">
<path d="M19.2433 10.3433C19.2433 12.7037 18.3056 14.9674 16.6365 16.6365C14.9674 18.3056 12.7037 19.2433 10.3433 19.2433V20.6865C16.0556 20.6865 20.6865 16.0556 20.6865 10.3433H19.2433ZM10.3433 19.2433C7.98283 19.2433 5.71908 18.3056 4.05 16.6365C2.38092 14.9674 1.44325 12.7037 1.44325 10.3433H0C0 16.0556 4.63089 20.6865 10.3433 20.6865V19.2433ZM1.44325 10.3433C1.44325 7.98283 2.38092 5.71908 4.05 4.05C5.71908 2.38092 7.98283 1.44325 10.3433 1.44325V0C4.63089 0 0 4.63089 0 10.3433H1.44325ZM13.7108 12.5081C12.2435 12.5081 10.8363 11.9252 9.79881 10.8877C8.76127 9.85018 8.17839 8.44298 8.17839 6.97569H6.73515C6.73515 8.82576 7.47008 10.6 8.77828 11.9082C10.0865 13.2164 11.8608 13.9514 13.7108 13.9514V12.5081ZM18.4495 9.83235C17.9572 10.6489 17.2622 11.3243 16.4319 11.7932C15.6016 12.262 14.6643 12.5083 13.7108 12.5081V13.9514C14.9129 13.9517 16.0948 13.6414 17.1416 13.0506C18.1885 12.4597 19.0649 11.6083 19.6859 10.579L18.4495 9.83235ZM8.17839 6.97569C8.17826 6.02221 8.42454 5.08488 8.89337 4.25462C9.36219 3.42436 10.0376 2.72936 10.8542 2.23703L10.1075 1.00161C9.07835 1.62248 8.22706 2.49875 7.6362 3.54544C7.04534 4.59213 6.73496 5.77374 6.73515 6.97569H8.17839ZM10.3433 1.44325C10.2949 1.44232 10.2472 1.4318 10.203 1.41231C10.1587 1.39283 10.1187 1.36475 10.0854 1.32971C10.0448 1.28897 10.0174 1.23704 10.0065 1.18058C10.0027 1.15075 10.0046 1.06415 10.1075 1.00161L10.8542 2.23703C11.3381 1.94453 11.494 1.40861 11.4372 0.98718C11.3776 0.549396 11.0331 0 10.3433 0V1.44325ZM19.6859 10.579C19.6224 10.6819 19.5358 10.6839 19.5059 10.68C19.4495 10.6692 19.3976 10.6417 19.3568 10.6011C19.3218 10.5678 19.2937 10.5278 19.2742 10.4836C19.2547 10.4393 19.2442 10.3916 19.2433 10.3433H20.6865C20.6865 9.65339 20.1371 9.30894 19.6993 9.24928C19.2779 9.19251 18.742 9.34838 18.4495 9.83235L19.6859 10.579Z" fill="#A1A4D9"/>
<path d="M8.54095 3.24087L10.5594 1.22229L5.87351 1.6909L1.72823 5.54782L0.61084 11.4233L3.02584 16.9023L8.03622 19.7139L13.371 19.4615L17.0477 17.5511L19.4267 14.4872L20.0756 11.4233L19.4267 10.0175L18.5616 11.0268L16.0384 12.721L13.371 13.2616L10.5594 12.3245L8.03622 9.44078L7.60371 6.84547L8.54095 3.24087Z" fill="#A1A4D9"/>
</g>
<defs>
<clipPath id="clip0_426_327">
<rect width="21" height="21" fill="white"/>
</clipPath>
</defs>
</svg>
