<svg width="18" height="20" viewBox="0 0 18 20" fill="none" xmlns="http://www.w3.org/2000/svg">
<g clip-path="url(#clip0_477_310)">
<path d="M0 4.386C0 3.902 0.345 3.509 0.771 3.509H3.436C3.965 3.493 4.432 3.11 4.612 2.544L4.642 2.444L4.757 2.053C4.827 1.813 4.888 1.603 4.974 1.416C5.312 0.677 5.938 0.164 6.661 0.033C6.845 -7.45058e-09 7.039 0 7.261 0H10.739C10.962 0 11.156 -7.45058e-09 11.339 0.033C12.062 0.164 12.689 0.677 13.026 1.416C13.112 1.603 13.173 1.812 13.244 2.053L13.358 2.444L13.388 2.544C13.568 3.11 14.128 3.494 14.658 3.509H17.228C17.655 3.509 18 3.902 18 4.386C18 4.87 17.655 5.263 17.229 5.263H0.77C0.345 5.263 0 4.87 0 4.386Z" fill="#121212"/>
<path d="M12.8762 6.3159C14.409 6.3159 15.1751 6.31597 15.6291 6.8159C16.0821 7.3149 16.0318 8.10413 15.9318 9.68113L15.6652 13.8696C15.4803 16.7753 15.3875 18.2278 14.4836 19.1137C13.5776 19.9997 12.1865 20.0005 9.40353 20.0005H8.59591C5.81293 20.0005 4.4218 19.9997 3.51681 19.1137C2.6121 18.2288 2.52013 16.775 2.33517 13.8696L2.06759 9.68113C1.96659 8.10414 1.9183 7.31589 2.3713 6.8159C2.82433 6.3162 3.59154 6.3159 5.12423 6.3159H12.8762ZM6.42501 9.48191C6.01401 9.52491 5.71311 9.91217 5.75411 10.3462L6.25411 15.6089C6.29514 16.0428 6.66342 16.3589 7.0754 16.3159C7.48619 16.2717 7.78729 15.8845 7.7463 15.4516L7.2463 10.1889C7.2053 9.75495 6.838 9.43792 6.42501 9.48191ZM11.5744 9.48093C11.1634 9.43793 10.7951 9.75497 10.7541 10.188L10.2541 15.4516C10.2131 15.8856 10.513 16.2719 10.926 16.3159C11.338 16.3589 11.7063 16.0428 11.7463 15.6089L12.2463 10.3462C12.2857 9.93918 12.0232 9.57303 11.6506 9.49363L11.5744 9.48093Z" fill="#121212"/>
</g>
<defs>
<clipPath id="clip0_477_310">
<rect width="18" height="20" fill="white"/>
</clipPath>
</defs>
</svg>
