<svg width="18" height="20" viewBox="0 0 18 20" fill="none" xmlns="http://www.w3.org/2000/svg">
<g clip-path="url(#clip0_461_311)">
<path d="M0 4.386C0 3.902 0.345 3.509 0.771 3.509H3.436C3.965 3.493 4.432 3.11 4.612 2.544L4.642 2.444L4.757 2.053C4.827 1.813 4.888 1.603 4.974 1.416C5.312 0.677 5.938 0.164 6.661 0.033C6.845 -7.45058e-09 7.039 0 7.261 0H10.739C10.962 0 11.156 -7.45058e-09 11.339 0.033C12.062 0.164 12.689 0.677 13.026 1.416C13.112 1.603 13.173 1.812 13.244 2.053L13.358 2.444L13.388 2.544C13.568 3.11 14.128 3.494 14.658 3.509H17.228C17.655 3.509 18 3.902 18 4.386C18 4.87 17.655 5.263 17.229 5.263H0.77C0.345 5.263 0 4.87 0 4.386Z" fill="#F5F6F8"/>
<path d="M12.8758 6.31589C14.4086 6.31589 15.1747 6.31611 15.6287 6.81589C16.0817 7.31489 16.0314 8.10412 15.9314 9.68112L15.6648 13.8696C15.4799 16.7749 15.3878 18.2278 14.4842 19.1137C13.5782 19.9997 12.187 20.0005 9.40411 20.0005H8.59551C5.81283 20.0005 4.42234 19.9996 3.51739 19.1137C2.61244 18.2288 2.51975 16.7753 2.33477 13.8696L2.06817 9.68112C1.96717 8.10412 1.9179 7.31589 2.3709 6.81589C2.82391 6.31602 3.59101 6.31589 5.12383 6.31589H12.8758ZM6.42461 9.4819C6.01378 9.52508 5.71273 9.91228 5.75371 10.3462L6.25371 15.6089C6.29473 16.0428 6.66301 16.3589 7.075 16.3159C7.48598 16.2719 7.7869 15.8846 7.7459 15.4516L7.2459 10.1889C7.2049 9.75493 6.83761 9.4379 6.42461 9.4819ZM11.574 9.48093C11.163 9.43793 10.7947 9.75496 10.7537 10.188L10.2537 15.4516C10.2127 15.8855 10.5128 16.2717 10.9256 16.3159C11.3376 16.3589 11.7059 16.0428 11.7459 15.6089L12.2459 10.3462C12.2853 9.93939 12.0234 9.57328 11.6512 9.49362L11.574 9.48093Z" fill="#F5F6F8"/>
</g>
<defs>
<clipPath id="clip0_461_311">
<rect width="18" height="20" fill="white"/>
</clipPath>
</defs>
</svg>
