<svg width="206" height="235" viewBox="0 0 206 235" fill="none" xmlns="http://www.w3.org/2000/svg">
<g clip-path="url(#clip0_325_371)">
<path d="M10.4939 94.3325C10.4939 87.3337 16.1675 81.66 23.1663 81.66H191.71C195.209 81.66 198.046 84.4969 198.046 87.9962V227.393C198.046 230.892 195.209 233.729 191.71 233.729H23.1663C16.1675 233.729 10.4939 228.055 10.4939 221.057V94.3325Z" fill="#9B82F7" stroke="#6F48FF" stroke-width="2.53448"/>
<path d="M124.545 162.764C124.545 174.662 134.191 184.307 146.089 184.307H205.649V147.557C205.649 144.058 202.812 141.221 199.313 141.221H146.089C134.191 141.221 124.545 150.866 124.545 162.764V162.764Z" fill="#6F48FF"/>
<path d="M10.4939 94.3325C10.4939 87.3337 16.1675 81.66 23.1663 81.66H191.71C195.209 81.66 198.046 84.4969 198.046 87.9962V107.005H23.1663C16.1675 107.005 10.4939 101.331 10.4939 94.3325V94.3325Z" fill="#9B82F7" stroke="#6F48FF" stroke-width="2.53448"/>
<path opacity="0.36" d="M10.4939 94.3329H198.046V107.005H23.1663C16.1675 107.005 10.4939 101.332 10.4939 94.3329V94.3329Z" fill="#6F48FF"/>
<rect x="26.968" y="62.7659" width="145.733" height="102.407" rx="16.3176" transform="rotate(-12.6017 26.968 62.7659)" fill="#C7CAF1"/>
<path d="M153.265 34.5304C162.06 32.5642 170.783 38.0999 172.75 46.8947L187.972 114.985C189.938 123.78 184.402 132.504 175.607 134.47L139.231 142.602C94.7337 135.609 56.4227 104.064 42.2518 59.3623C42.4633 59.3062 42.6766 59.2534 42.8921 59.2052L153.265 34.5304Z" fill="#E2E6FD"/>
<path d="M153.265 34.5308C162.06 32.5647 170.784 38.1001 172.751 46.8949L180.22 80.3046C177.445 81.3638 174.56 82.2373 171.576 82.9044C141.774 89.5668 112.189 73.5199 100.9 46.2375L153.265 34.5308Z" fill="#ECEFFF"/>
<rect opacity="0.61" x="46.2715" y="76.8997" width="62.4569" height="8.44012" rx="4.22006" transform="rotate(-12.6017 46.2715 76.8997)" fill="#898DCA"/>
<rect opacity="0.61" x="53.6372" y="109.848" width="114.223" height="8.44012" rx="4.22006" transform="rotate(-12.6017 53.6372 109.848)" fill="#898DCA"/>
<path d="M33.3044 107.005H198.046V227.393C198.046 230.893 195.209 233.729 191.71 233.729H33.3044V107.005Z" fill="#9B82F7" stroke="#6F48FF" stroke-width="2.53448"/>
<path d="M33.3044 112.074H191.71V222.324C191.71 225.824 188.873 228.661 185.373 228.661H33.3044V112.074Z" stroke="#6F48FF" stroke-width="1.90086" stroke-linecap="round" stroke-linejoin="round" stroke-dasharray="5.07 5.07"/>
<path d="M35.5743 44.9831C36.2813 43.2232 38.9086 43.8123 38.7964 45.7056L38.0382 58.4956C37.9956 59.2137 38.4169 59.8786 39.0845 60.1468L50.9734 64.9227C52.7334 65.6297 52.1442 68.257 50.2509 68.1447L37.461 67.3865C36.7428 67.3439 36.0779 67.7653 35.8098 68.4328L31.0338 80.3218C30.3269 82.0817 27.6996 81.4925 27.8118 79.5993L28.57 66.8093C28.6126 66.0912 28.1913 65.4263 27.5237 65.1581L15.6347 60.3822C13.8748 59.6752 14.464 57.0479 16.3573 57.1602L29.1472 57.9184C29.8653 57.9609 30.5302 57.5396 30.7984 56.8721L35.5743 44.9831Z" fill="#9B82F7" fill-opacity="0.29"/>
<path d="M165.69 6.3242C165.881 5.15684 167.56 5.15683 167.75 6.32419L169.033 14.2102C169.106 14.653 169.453 15.0001 169.895 15.0722L177.781 16.356C178.949 16.5461 178.949 18.2251 177.781 18.4152L169.895 19.699C169.453 19.7711 169.106 20.1182 169.033 20.561L167.75 28.447C167.56 29.6144 165.881 29.6144 165.69 28.447L164.407 20.561C164.335 20.1182 163.987 19.7711 163.545 19.699L155.659 18.4152C154.491 18.2251 154.491 16.5461 155.659 16.356L163.545 15.0722C163.987 15.0001 164.335 14.653 164.407 14.2102L165.69 6.3242Z" fill="#9B82F7" fill-opacity="0.29"/>
<circle cx="182.839" cy="30.9706" r="1.26724" fill="#9B82F7" fill-opacity="0.29"/>
<circle cx="66.2525" cy="29.7036" r="2.53448" fill="#9B82F7" fill-opacity="0.29"/>
<circle cx="132.149" cy="38.5742" r="2.53448" fill="#9B82F7" fill-opacity="0.29"/>
<path opacity="0.28" d="M9.22681 139.48C21.5878 184.222 55.4974 220.016 99.0881 234.996H23.1672C15.4686 234.996 9.22681 228.755 9.22681 221.056V139.48ZM197.388 232.445C195.995 234.009 193.969 234.995 191.71 234.996H190.555C192.86 234.203 195.138 233.352 197.388 232.445Z" fill="#7857F3"/>
<path opacity="0.28" d="M198.056 200.774C197.635 200.777 197.212 200.781 196.79 200.781C122.66 200.781 60.432 160.761 43.2 106.725H198.056V200.774Z" fill="#BAA7FF"/>
<path d="M123.278 170.367C123.278 158.469 132.923 148.824 144.821 148.824H204.382V185.574C204.382 189.073 201.545 191.91 198.045 191.91H144.821C132.923 191.91 123.278 182.265 123.278 170.367V170.367Z" fill="#9B82F7" stroke="#6F48FF" stroke-width="2.53448"/>
<circle cx="144.821" cy="170.367" r="10.1379" fill="#6F48FF" stroke="#6F48FF" stroke-width="2.53448"/>
</g>
<defs>
<clipPath id="clip0_325_371">
<rect width="205.645" height="235" fill="white"/>
</clipPath>
</defs>
</svg>
