<svg width="340" height="136" viewBox="0 0 340 136" fill="none" xmlns="http://www.w3.org/2000/svg">
<g clip-path="url(#clip0_387_677)">
<path d="M1 103.628V31.9588C1 14.7966 14.9127 0.883881 32.0749 0.883881H103.455C112.962 0.883881 122.194 4.07212 129.676 9.93867L142.193 19.7545C150.001 25.8769 159.636 29.2042 169.557 29.2042C179.326 29.2042 188.822 25.9784 196.57 20.0279L209.706 9.93867C217.35 4.06692 226.72 0.883881 236.36 0.883881H307.878C325.041 0.883881 338.953 14.7966 338.953 31.9588V103.628C338.953 120.79 325.041 134.703 307.878 134.703H32.0749C14.9127 134.703 1 120.79 1 103.628Z" fill="#D6CFFA" stroke="white" stroke-width="2"/>
</g>
<defs>
<clipPath id="clip0_387_677">
<rect width="340" height="136" fill="white"/>
</clipPath>
</defs>
</svg>
