<svg width="31" height="22" viewBox="0 0 31 22" fill="none" xmlns="http://www.w3.org/2000/svg">
<g clip-path="url(#clip0_301_400)">
<path d="M23.75 0C27.4779 0 30.5 3.02208 30.5 6.75V14.75C30.5 18.4779 27.4779 21.5 23.75 21.5H6.75C3.02208 21.5 0 18.4779 0 14.75V6.75C0 3.02208 3.02208 0 6.75 0H23.75ZM6.75 1.5C3.85051 1.5 1.5 3.85051 1.5 6.75V14.75C1.5 17.6495 3.85051 20 6.75 20H23.75C26.0358 20 27.9794 18.5389 28.7002 16.5H22.75C21.2312 16.5 20 15.2688 20 13.75V11.75C20 10.2312 21.2312 9 22.75 9H29V6.75C29 5.94471 28.8182 5.182 28.4941 4.5H6.75C6.33579 4.5 6 4.16421 6 3.75C6 3.33579 6.33579 3 6.75 3H27.4219C26.4751 2.07281 25.1799 1.5 23.75 1.5H6.75ZM22.75 10.5C22.0596 10.5 21.5 11.0596 21.5 11.75V13.75C21.5 14.4404 22.0596 15 22.75 15H28.8486C28.9468 14.5995 29 14.1812 29 13.75V10.5H22.75Z" fill="#121212"/>
</g>
<defs>
<clipPath id="clip0_301_400">
<rect width="30.5" height="21.5" fill="white"/>
</clipPath>
</defs>
</svg>
