<svg width="31" height="22" viewBox="0 0 31 22" fill="none" xmlns="http://www.w3.org/2000/svg">
<g clip-path="url(#clip0_301_399)">
<path d="M23.75 0C27.4779 0 30.5 3.02208 30.5 6.75V14.75C30.5 18.4779 27.4779 21.5 23.75 21.5H6.75C3.02208 21.5 0 18.4779 0 14.75V6.75C0 3.02208 3.02208 0 6.75 0H23.75ZM22.75 9C21.2312 9 20 10.2312 20 11.75V13.75C20 15.2688 21.2312 16.5 22.75 16.5H28.7002C28.8673 16.0273 28.9696 15.5239 28.9941 15H22.75C22.0596 15 21.5 14.4404 21.5 13.75V11.75C21.5 11.0596 22.0596 10.5 22.75 10.5H29V9H22.75ZM6.75 3C6.33579 3 6 3.33579 6 3.75C6 4.16421 6.33579 4.5 6.75 4.5H28.4941C28.2268 3.93738 27.8618 3.43078 27.4219 3H6.75Z" fill="#121212"/>
</g>
<defs>
<clipPath id="clip0_301_399">
<rect width="30.5" height="21.5" fill="white"/>
</clipPath>
</defs>
</svg>
